<?xml version="1.0" ?><svg viewBox="0 0 64 64" xmlns="http://www.w3.org/2000/svg"><title/><g id="Antenna"><path d="M48,16a1.9673,1.9673,0,0,1-.8555-.2041l-.6357-.3047-.3047-.6357A1.9673,1.9673,0,0,1,46,14a2,2,0,1,1,2,2Z" style="fill:#2965ed"/><path d="M55,35l-2.2,2.2a19.8,19.8,0,0,1-23.13,3.57,6.0021,6.0021,0,0,0-8.44-8.44A19.72,19.72,0,0,1,24.8,9.2L27,7Z" style="fill:#e6ecff"/><path d="M23.26,42.74,17,49v6H11V47l8.26-8.26a6.0109,6.0109,0,0,0,2.54,3.33A5.5278,5.5278,0,0,0,23.26,42.74Z" style="fill:#e6ecff"/><path d="M55,35l-2.2,2.2a19.8,19.8,0,0,1-23.13,3.57,5.9866,5.9866,0,0,0-.52-8.09,39.6353,39.6353,0,0,0,6.21-17.32Z" style="fill:#b7c6e2"/><path d="M23.26,42.74,17,49v6H11V51.62a86.633,86.633,0,0,0,10.8-9.55A5.5278,5.5278,0,0,0,23.26,42.74Z" style="fill:#b7c6e2"/><path d="M31,37a6.0048,6.0048,0,0,1-6,6,5.91,5.91,0,0,1-3.2-.93A5.9965,5.9965,0,0,1,25,31a6.0233,6.0233,0,0,1,6,6Z" style="fill:#4294ff"/><path d="M31,37a6.0048,6.0048,0,0,1-6,6,5.91,5.91,0,0,1-3.2-.93,58.47,58.47,0,0,0,7.35-9.39A5.9381,5.9381,0,0,1,31,37Z" style="fill:#2965ed"/><path d="M5,61a6.0066,6.0066,0,0,1,6-6h6a6.0066,6.0066,0,0,1,6,6Z" style="fill:#2965ed"/><path d="M42.4141,21l4.2929-4.293.0058-.0086A2.9669,2.9669,0,0,0,48,17a3,3,0,1,0-3-3,2.9669,2.9669,0,0,0,.3016,1.2872l-.0086.0058L41,19.5859,27.707,6.293a.9994.9994,0,0,0-1.414,0l-2.2,2.2a20.6984,20.6984,0,0,0-4.0775,23.6007A6.9775,6.9775,0,0,0,18.15,38.4363L10.293,46.293A.9993.9993,0,0,0,10,47v7.08A7.0056,7.0056,0,0,0,4,61a1,1,0,0,0,1,1H23a1,1,0,0,0,1-1,7.0056,7.0056,0,0,0-6-6.92V49.4141L23.5637,43.85a6.9764,6.9764,0,0,0,6.3355-1.8594,20.77,20.77,0,0,0,23.6076-4.0838l2.2-2.2a.9994.9994,0,0,0,0-1.414ZM48,13a1,1,0,1,1-1,1A1.0006,1.0006,0,0,1,48,13ZM21.8994,60H6.1006A5.0085,5.0085,0,0,1,11,56h6A5.0085,5.0085,0,0,1,21.8994,60Zm-.3828-16.9307L16.293,48.293A.9993.9993,0,0,0,16,49v5H12V47.4141l6.9307-6.9307A7.2464,7.2464,0,0,0,21.5166,43.0693ZM25,42a5,5,0,1,1,5-5A5.0295,5.0295,0,0,1,25,42Zm27.0928-5.5068a18.8063,18.8063,0,0,1-20.9571,3.8759l.0118-.0251A7.2279,7.2279,0,0,0,32,37a7.0085,7.0085,0,0,0-7-7,7.2333,7.2333,0,0,0-3.3682.8633,18.7152,18.7152,0,0,1,3.875-20.9561L27,8.4141,53.5859,35Z" style="fill:#232328"/><path d="M52,14a1,1,0,0,0,2,0,6.0066,6.0066,0,0,0-6-6,1,1,0,0,0,0,2A4.0039,4.0039,0,0,1,52,14Z" style="fill:#232328"/><path d="M48,5a1,1,0,0,0,0,2,7.0085,7.0085,0,0,1,7,7,1,1,0,0,0,2,0A9.01,9.01,0,0,0,48,5Z" style="fill:#232328"/><path d="M48,2a1,1,0,0,0,0,2A10.0117,10.0117,0,0,1,58,14a1,1,0,0,0,2,0A12.0131,12.0131,0,0,0,48,2Z" style="fill:#232328"/></g></svg>